<?xml version="1.0" encoding="UTF-8"?><!-- Generator: Adobe Illustrator 23.0.4, SVG Export Plug-In . SVG Version: 6.00 Build 0)  --><svg xmlns="http://www.w3.org/2000/svg" enable-background="new 0 0 514.6 276.4" version="1.1" viewBox="0 0 514.6 276.4" x="0px" xml:space="preserve" y="0px">
<g id="change1_1"><path d="m516 32.7c-3.7 12.1-6.2 24.8-11.5 36.1-6.3 13.5-14.6 26.2-22.8 38.8-20.4 31.4-50.9 45.4-87.1 47.7-16.2 1-32.6-0.9-49-1.1-2.6 0-5.1 1-7 2.7-42.1 41.7-94.1 62.8-151.5 70.9-30.6 4.3-61.8 4.3-92.6 7.5-15.4 1.7-30.6 4.7-45.4 9.1-15.7 4.5-27.4 15.9-38.4 27.6-1.6 1.8-2.3 4.4-3.4 6.7l-3.8-2.3c0-4.5-0.7-9.1 0.1-13.5 3.9-21.1 16.4-35.8 35.1-45.2 20.1-10.1 42-13.4 64.2-15.1 31.1-2.4 62.5-3 93.3-7.2 42.2-5.9 80.5-22.7 114.4-48.9 2.2-1.7 4.1-3.6 6.1-5.4 0.5-0.4 0.7-1.1 0.5-0.8-25.6-38.3-23.8-76.6-2.1-114.9 12.1-21.2 34.3-23.4 51.9-20.7 7.9 1.2 13.3 6.6 17.2 13.5 10.5 18.8 9.5 38.5 4.9 58.5-4.5 19.5-14.7 36.2-26.1 52.3-1.5 2.1-3 4.3-5.2 7.4 16.4 2.6 31.5 1.7 46.6 0 34.2-3.8 56.5-24.3 73.8-51.9 12.4-19.7 24.6-39.5 28.6-63 0.2-1.2 1.9-3.2 2.6-3.1 1.7 0.3 3.2 1.3 4.1 2.7 1.2 2.3 1.7 5 2.5 7.6v4zm-183.5 93.4c19.1-21.8 34-44 38.6-71.3 1.4-8.4-0.1-17.5-1.5-26-0.5-2.8-4.9-6.8-7.9-7.1-13.2-1.3-25.6 1-33.2 13.7-15.2 25.5-16.5 51.9-4.8 79 1.7 4 5.3 7.1 8.8 11.7z" fill="inherit"/></g>
</svg>