<svg height="423pt" viewBox="0 -20 423.25333 423" width="423pt" xmlns="http://www.w3.org/2000/svg"><path d="m327.679688 157.140625c0 86.714844-70.296876 157.011719-157.011719 157.011719-86.71875 0-157.015625-70.296875-157.015625-157.011719s70.296875-157.015625 157.015625-157.015625c86.714843 0 157.011719 70.300781 157.011719 157.015625zm0 0" fill="#efefd2"/><path d="m232.222656 224.03125 136.75-62.160156-136.75-49.730469-156.773437 60.21875zm0 0" fill="#e7d1c4"/><path d="m232.21875 230.859375c-.71875 0-1.441406-.113281-2.140625-.339844l-156.765625-51.671875c-2.738281-.90625-4.613281-3.433594-4.6875-6.320312-.066406-2.886719 1.6875-5.507813 4.382812-6.539063l156.765626-60.21875c1.527343-.582031 3.226562-.601562 4.777343-.042969l136.753907 49.734376c2.605468.949218 4.378906 3.375 4.488281 6.148437.105469 2.773437-1.472657 5.332031-3.992188 6.480469l-136.753906 62.160156c-.894531.402344-1.859375.609375-2.828125.609375zm-136.453125-58.992187 136.0625 44.847656 119.105469-54.140625-118.648438-43.148438zm0 0" fill="#4c241d"/><path d="m369.011719 164.832031v135.492188l-135.488281 75.269531-158.074219-60.21875v-143.015625l158.074219 52.691406zm0 0" fill="#bf7e68"/><path d="m233.519531 382.421875c-.820312 0-1.648437-.148437-2.433593-.449219l-158.066407-60.21875c-2.648437-1.007812-4.394531-3.546875-4.394531-6.378906v-143.015625c0-2.191406 1.054688-4.253906 2.835938-5.539063 1.785156-1.285156 4.074218-1.648437 6.152343-.933593l155.554688 51.855469 133.066406-59.148438c2.105469-.941406 4.550781-.742188 6.492187.515625 1.941407 1.257813 3.105469 3.410156 3.105469 5.722656v135.488281c0 2.480469-1.34375 4.765626-3.511719 5.96875l-135.488281 75.269532c-1.023437.574218-2.164062.863281-3.3125.863281zm-151.238281-71.753906 150.699219 57.414062 129.199219-71.78125v-120.960937l-125.886719 55.953125c-1.558594.679687-3.320313.78125-4.933594.234375l-149.082031-49.695313v128.835938zm0 0" fill="#4c241d"/><path d="m232.105469 382.421875c-3.773438 0-6.824219-3.054687-6.824219-6.828125v-150.1875c0-3.773438 3.050781-6.828125 6.824219-6.828125 3.773437 0 6.828125 3.054687 6.828125 6.828125v150.1875c0 3.773438-3.054688 6.828125-6.828125 6.828125zm0 0" fill="#4c241d"/><path d="m191.148438 315.375-40.425782-45.160156-27.84375 22.578125v-101.519531l68.269532 18.722656zm0 0" fill="#fc8c29"/><path d="m191.148438 322.199219c-1.90625 0-3.769532-.800781-5.085938-2.273438l-36.089844-40.3125-22.792968 18.480469c-2.046876 1.660156-4.867188 1.992188-7.230469.859375-2.382813-1.125-3.894531-3.523437-3.894531-6.160156v-101.519531c0-2.125.992187-4.140626 2.6875-5.425782 1.683593-1.300781 3.898437-1.722656 5.945312-1.160156l68.265625 18.71875c2.96875.8125 5.019531 3.515625 5.019531 6.585938v105.378906c0 2.828125-1.746094 5.367187-4.386718 6.378906-.792969.304688-1.621094.449219-2.4375.449219zm-40.429688-58.8125c1.875 0 3.738281.773437 5.085938 2.273437l28.515624 31.851563v-82.3125l-54.613281-14.972657v78.242188l16.714844-13.554688c1.257813-1.027343 2.777344-1.527343 4.296875-1.527343zm0 0" fill="#4c241d"/><path d="m300.328125 197.800781c-.734375 0-1.480469-.121093-2.214844-.367187l-142.078125-48.722656c-3.570312-1.226563-5.46875-5.105469-4.246094-8.671876 1.226563-3.566406 5.097657-5.445312 8.671876-4.246093l142.078124 48.71875c3.570313 1.230469 5.46875 5.109375 4.246094 8.675781-.972656 2.832031-3.625 4.613281-6.457031 4.613281zm0 0" fill="#4c241d"/><path d="m139.335938 148.609375c0 36.589844-29.664063 66.253906-66.253907 66.253906-36.59375 0-66.253906-29.664062-66.253906-66.253906 0-36.59375 29.660156-66.253906 66.253906-66.253906 36.589844 0 66.253907 29.660156 66.253907 66.253906zm0 0" fill="#fff"/><path d="m73.078125 221.6875c-40.292969 0-73.078125-32.789062-73.078125-73.082031s32.785156-73.078125 73.078125-73.078125 73.082031 32.785156 73.082031 73.078125-32.785156 73.082031-73.082031 73.082031zm0-132.507812c-32.765625 0-59.425781 26.660156-59.425781 59.425781s26.660156 59.425781 59.425781 59.425781c32.769531 0 59.425781-26.660156 59.425781-59.425781s-26.65625-59.425781-59.425781-59.425781zm0 0" fill="#4c241d"/><path d="m58.640625 178.488281c-1.394531 0-2.800781-.429687-4.015625-1.316406-3.046875-2.21875-3.71875-6.484375-1.492188-9.53125l15.492188-21.261719v-30.699218c0-3.773438 3.054688-6.828126 6.828125-6.828126s6.824219 3.054688 6.824219 6.828126v32.925781c0 1.449219-.460938 2.855469-1.3125 4.019531l-16.808594 23.054688c-1.332031 1.835937-3.410156 2.808593-5.515625 2.808593zm0 0" fill="#4c241d"/><path d="m363.660156 207.839844c-29.148437 0-52.769531 23.621094-52.769531 52.765625s52.769531 92.347656 52.769531 92.347656 52.765625-63.203125 52.765625-92.347656-23.621093-52.765625-52.765625-52.765625zm0 0" fill="#bd53b5"/><path d="m363.660156 359.78125c-2.027344 0-3.941406-.902344-5.238281-2.457031-5.570313-6.660157-54.363281-65.992188-54.363281-96.71875 0-32.859375 26.734375-59.59375 59.601562-59.59375 32.859375 0 59.59375 26.734375 59.59375 59.59375 0 30.726562-48.789062 90.058593-54.355468 96.71875-1.289063 1.554687-3.210938 2.457031-5.238282 2.457031zm0-145.113281c-25.332031 0-45.945312 20.605469-45.945312 45.9375 0 19.546875 29.503906 60.792969 45.945312 81.515625 16.433594-20.726563 45.941406-61.980469 45.941406-81.515625 0-25.332031-20.609374-45.9375-45.941406-45.9375zm0 0" fill="#4c241d"/><path d="m382 260.605469c0 10.132812-8.210938 18.34375-18.339844 18.34375-10.132812 0-18.34375-8.210938-18.34375-18.34375 0-10.128907 8.210938-18.339844 18.34375-18.339844 10.128906 0 18.339844 8.210937 18.339844 18.339844zm0 0" fill="#fff"/><path d="m363.660156 285.773438c-13.878906 0-25.167968-11.285157-25.167968-25.167969 0-13.878907 11.289062-25.164063 25.167968-25.164063s25.167969 11.285156 25.167969 25.164063c0 13.882812-11.289063 25.167969-25.167969 25.167969zm0-36.679688c-6.347656 0-11.511718 5.164062-11.511718 11.511719 0 6.347656 5.164062 11.515625 11.511718 11.515625s11.511719-5.167969 11.511719-11.515625c0-6.347657-5.164063-11.511719-11.511719-11.511719zm0 0" fill="#4c241d"/></svg>