<svg enable-background="new 0 0 140 140" height="512" viewBox="0 0 140 140" width="512" xmlns="http://www.w3.org/2000/svg"><circle cx="70" cy="70" fill="#dbd8dd" r="64"/><path d="m96.5999908 26.7642231h-53.2000122v14.0996113l4.5300293 4.5302734h-13.8400268v7.0595703h-3.7199707v5.7202148l3.7199707 3.6098633v51.4501915l18.2893066 18.2890625c5.6000977 1.6015625 11.5064697 2.4770508 17.6207275 2.4770508 35.3463135 0 64-28.6538086 64-64 0-2.0708008-.1071777-4.1157227-.2993774-6.1357384z" opacity=".1"/><path d="m54.444012 38.766625h2.871965v8.289147h-2.871965z" fill="#4da0dc"/><path d="m82.683991 38.766625h2.871965v8.289147h-2.871965z" fill="#4da0dc"/><path d="m34.087101 45.393047h71.825768v67.839287h-71.825768z" fill="#dd584d"/><path d="m43.398396 26.767538h53.203178v14.096781h-53.203178z" fill="#4288b9"/><path d="m78.971451 79.312691h20.371103v30.965981h-20.371103z" fill="#344d5b"/><path d="m76.556023 110.278671h25.201965v2.953662h-25.201965z" fill="#d6b250"/><path d="m81.053497 81.394943h16.206976v7.241567h-16.206976z" fill="#467082"/><path d="m109.6300201 52.4536781v5.7202149l-3.7200317 3.6098633v-3.6098633h-71.8200073v3.6098633l-3.7199707-3.6098633v-5.7202149z" fill="#d6b24e"/><path d="m30.3681164 58.1768646 3.7189846 3.6098671v-3.6098671z" fill="#bb9d44"/><path d="m109.6318512 58.1768646-3.7189865 3.6098671v-3.6098671z" fill="#bb9d44"/><path d="m36.753986 87.480499h21.767147v12.259573h-21.767147z" fill="#4da0dc" transform="matrix(0 1 -1 0 141.248 45.973)"/><path d="m40.930786 89.141686h13.504543v1.041118h-13.504543z" fill="#ededed"/><path d="m40.4666557 81.6855927v23.8496399h14.3415527v-23.8496399zm13.3006897 7.4560928h-5.5644913v-6.4149704h5.5644913zm-6.6056099-6.4149704v6.4149704h-5.6539612v-6.4149704zm-5.6539611 21.7668915v-14.3107987h12.2595711v14.3107986h-12.2595711z" fill="#ededed"/><path d="m54.537678 87.480499h21.767147v12.259573h-21.767147z" fill="#4da0dc" transform="matrix(0 1 -1 0 159.032 28.189)"/><path d="m58.714478 89.141686h13.504543v1.041118h-13.504543z" fill="#ededed"/><path d="m58.2503471 81.6855927v23.8496399h14.3415565v-23.8496399zm13.3006935 7.4560928h-5.5644913v-6.4149704h5.5644913zm-6.6056137-6.4149704v6.4149704h-5.6539612v-6.4149704zm-5.6539611 21.7668915v-14.3107987h12.2595749v14.3107986h-12.2595749z" fill="#ededed"/><circle cx="81.443" cy="97.338" fill="#d6b250" r=".921"/><g fill="#fff"><path d="m45.6353798 36.1953812v-4.7621517h3.2646408v.8056011h-2.3031158v1.1271935h1.988018v.805603h-1.988018v2.0237541z"/><path d="m49.7186165 36.1953812v-4.7231712h.961525v3.9208145h2.3908195v.8023567z"/><path d="m53.56147 33.8435402c0-.485096.0725479-.8922272.2176437-1.2213974.1082764-.2425461.2560806-.4601898.4434052-.6529293.1873245-.1927376.3925133-.3356667.6155701-.4287872.2966881-.1256046.6388512-.1884079 1.0264931-.1884079.7016563 0 1.2630882.2176437 1.6842957.6529293.4212074.4352837.631813 1.0405693.631813 1.8158531 0 .7687874-.2089806 1.3702812-.6269417 1.8044853-.4179611.4342003-.9766846.6513023-1.6761703.6513023-.7081528 0-1.2712097-.2160187-1.689167-.648056-.4179612-.4320335-.6269418-1.0270347-.6269418-1.7849922zm.9907608-.032486c0 .5392342.1245232.9479904.3735657 1.2262726.2490425.2782784.5652199.4174194.9485321.4174194s.6978645-.1380577.9436607-.4141731c.2457924-.2761116.3686905-.6902847.3686905-1.2425117 0-.5457306-.119648-.9528618-.3589478-1.2213974-.239296-.2685318-.5570984-.4028015-.9534035-.4028015s-.7157288.135891-.9582787.4076767c-.2425459.2717819-.363819.6816215-.363819 1.229515z"/><path d="m59.6067352 36.1953812-1.1369362-4.7621517h.9842644l.7178955 3.2711353.8705711-3.2711353h1.1434364l.8348351 3.3263569.7308922-3.3263569h.9680176l-1.1564255 4.7621517h-1.0199966l-.9485321-3.5602455-.9452858 3.5602455z"/><path d="m65.2102203 36.1953812v-4.7621517h3.5310135v.8056011h-2.5694885v1.0557289h2.3908234v.8023567h-2.3908234v1.2961082h2.6604385v.8023567h-3.6219635z"/><path d="m69.6507797 36.1953812v-4.7621517h2.0237503c.5089188 0 .8786926.0427704 1.1093292.1283112s.4152527.2376747.5538559.4563999c.1385956.2187271.2078934.468853.2078934.7503815 0 .3573227-.1050262.6523857-.315094.8851852-.2100601.2328033-.5240707.3795204-.9420319.4401588.2078934.121273.3795166.2544594.5148697.3995514.1353531.1450958.3178024.4028015.5473557.7731209l.581459.9290428h-1.1499329l-.6951523-1.0362396c-.2468796-.3703194-.4157944-.6036606-.506752-.7000313-.0909576-.0963669-.1873245-.1624184-.2891083-.1981506s-.2631226-.0536003-.4840088-.0536003h-.1949081v1.9880219h-.9615249zm.961525-2.7481461h.7114029c.4612732 0 .7492981-.0194893.8640747-.0584717.1147766-.0389786.2046509-.1061134.2696152-.2014008s.0974503-.2143936.0974503-.3573227c0-.1602554-.0427704-.28965-.1283112-.3881836s-.2062759-.1607971-.3621979-.1867828c-.0779572-.0108299-.3118439-.016243-.7016525-.016243h-.7503815z"/><path d="m76.0566254 34.6458931.9355316-.0909538c.0563126.3140106.1705475.5446472.3427124.6919098.1721649.1472588.4044189.22089.6967773.22089.3096848 0 .5430222-.0655098.7000275-.1965294s.2355118-.2842331.2355118-.4596481c0-.1126099-.0330276-.2084389-.0990753-.2874832-.0660553-.0790443-.181366-.1478004-.3459549-.2062721-.1126099-.0389824-.3692322-.1082802-.7698669-.2078972-.515419-.1277695-.8770676-.2847786-1.0849686-.4710197-.2923584-.2620354-.43853-.5814629-.43853-.9582748 0-.2425499.0687561-.4693947.2062683-.680542.1375198-.2111435.3356705-.3719406.5944595-.4823856s.5711746-.1656685.9371643-.1656685c.597702 0 1.0476074.1310196 1.3497086.3930569.3021011.2620354.4607315.6117821.4758911 1.0492325l-.9615326.0422287c-.0411453-.2447128-.1293945-.4206657-.26474-.5278664-.1353531-.1071968-.3383789-.1607933-.6090775-.1607933-.2793579 0-.498085.0573883-.6561737.1721649-.1017838.0736313-.1526718.1721649-.1526718.2956047 0 .1126099.0476379.2089806.1429291.2891083.1212692.1017799.4157944.2078972.8835602.3183403.4677734.1104469.8137283.2246819 1.0378647.3427086.2241364.1180229.3995514.2793617.5262375.4840088.1266861.2046509.190033.4574814.190033.758503 0 .2728653-.075798.5284042-.2273865.7666206-.1515961.2382164-.3659897.4152527-.6431808.5311127-.2771988.11586-.622612.17379-1.0362396.17379-.6020355 0-1.0643921-.1391411-1.3870697-.4174194-.3226701-.2782786-.5154115-.6837886-.578209-1.2165263z"/><path d="m80.7408142 36.1953812v-4.7621517h.961525v1.8743229h1.8840714v-1.8743229h.961525v4.7621517h-.961525v-2.0822258h-1.8840714v2.0822258z"/><path d="m85.3470383 33.8435402c0-.485096.0725479-.8922272.2176437-1.2213974.1082764-.2425461.2560806-.4601898.4434052-.6529293.1873245-.1927376.3925171-.3356667.6155701-.4287872.2966919-.1256046.638855-.1884079 1.0264969-.1884079.7016525 0 1.2630844.2176437 1.6842957.6529293.4212036.4352837.631813 1.0405693.631813 1.8158531 0 .7687874-.2089844 1.3702812-.6269455 1.8044853-.4179611.4342003-.9766846.6513023-1.6761703.6513023-.7081528 0-1.2712097-.2160187-1.6891708-.648056-.4179613-.4320335-.626938-1.0270347-.626938-1.7849922zm.9907608-.032486c0 .5392342.1245193.9479904.3735657 1.2262726.2490463.2782784.5652237.4174194.9485321.4174194s.6978683-.1380577.9436569-.4141731c.2457962-.2761116.3686981-.6902847.3686981-1.2425117 0-.5457306-.1196518-.9528618-.3589478-1.2213974-.2393036-.2685318-.5570984-.4028015-.9534073-.4028015-.3963013 0-.7157288.135891-.9582748.4076767-.2425461.2717819-.3638229.6816215-.3638229 1.229515z"/><path d="m90.7166367 36.1953812v-4.7621517h1.5429916c.5847092 0 .9658585.0238209 1.1434326.0714645.2728653.0714645.5013428.2268467.6854172.4661446s.2761154.5484371.2761154.9274158c0 .2923584-.0530624.5381546-.1591721.7373886-.1061172.199234-.2409286.3556976-.4044266.4693909-.1635056.1136971-.3297119.1889496-.4986343.2257652-.2295532.0454788-.5619659.0682182-.9972534.0682182h-.6269455v1.7963638h-.9615249zm.9615249-3.9565506v1.3513336h.5262451c.3789749 0 .6323547-.0249023.7601242-.0747108.1277695-.0498123.2279282-.1277733.3004761-.2338867s.1088181-.2295532.1088181-.3703156c0-.1732483-.0508881-.3161774-.1526718-.428791-.1017838-.1126099-.2306366-.182991-.3865585-.2111435-.1147766-.021656-.3454132-.032486-.6919098-.032486z"/></g></svg>