<svg id="Capa_1" enable-background="new 0 0 512 512" height="512" viewBox="0 0 512 512" width="512" xmlns="http://www.w3.org/2000/svg"><g><g><g><ellipse cx="256" cy="347.607" fill="#beece1" rx="246" ry="79.204"/><path d="m359.15 105.409c-41.978 8.401-80.922 41.528-103.15 87.012-22.228-45.484-61.173-78.611-103.15-87.012-25.297 38.362-27.904 94.287-6.758 144.984s62.718 88.196 107.776 97.213c.731-1.109 1.439-2.236 2.132-3.374.693 1.138 1.401 2.265 2.132 3.374 45.058-9.017 86.631-46.516 107.776-97.213s18.539-106.622-6.758-144.984z" fill="#7dd9c2"/><ellipse cx="256" cy="216.265" fill="#faf7f5" rx="62.049" ry="131.078"/><g fill="#7dd9c2"><ellipse cx="350.912" cy="254.828" rx="131.21" ry="62.049" transform="matrix(.707 -.707 .707 .707 -77.411 322.769)"/><ellipse cx="161.088" cy="254.828" rx="62.049" ry="131.21" transform="matrix(.707 -.707 .707 .707 -133.009 188.544)"/></g></g></g><g><circle cx="256" cy="426.811" r="10"/><path d="m424.036 279.344c25.889-36.983 37.04-80.425 29.47-119.211-.78-3.996-3.904-7.12-7.899-7.899-18.564-3.623-38.195-2.947-57.674 1.566-3.288-20.001-10.25-38.451-20.435-53.895-2.241-3.399-6.32-5.102-10.312-4.3-18.982 3.802-37.74 12.379-54.853 24.978-10.91-18.011-24.83-32.984-40.752-43.691-3.374-2.269-7.786-2.269-11.16 0-15.925 10.709-29.849 25.687-40.759 43.701-17.112-12.6-35.866-21.186-54.847-24.988-3.993-.799-8.071.901-10.312 4.3-10.184 15.444-17.149 33.893-20.434 53.895-19.479-4.513-39.111-5.189-57.675-1.566-3.996.78-7.12 3.904-7.899 7.899-7.569 38.786 3.582 82.229 29.472 119.213-56.861 16.566-87.967 40.557-87.967 68.263 0 23.707 22.709 44.763 65.671 60.892 38.689 14.525 91.89 24.203 149.802 27.252.179.009.358.014.535.014 5.281 0 9.696-4.138 9.977-9.474.29-5.515-3.945-10.222-9.46-10.512-121.388-6.391-196.525-40.363-196.525-68.172 0-18.049 31.721-37.909 81.343-51.243 2.818 3.207 5.742 6.351 8.799 9.408h.001c34.492 34.491 79.065 53.979 121.071 53.979 8.321 0 16.549-.766 24.57-2.331.074-.014.143-.043.217-.059.074.016.142.045.217.059 8.024 1.566 16.246 2.331 24.57 2.331 42.003 0 86.582-19.49 121.071-53.979h.001c3.057-3.057 5.981-6.202 8.799-9.409 49.621 13.334 81.341 33.195 81.341 51.244 0 27.822-75.172 61.798-196.619 68.177-5.515.29-9.751 4.996-9.462 10.511.28 5.337 4.695 9.476 9.978 9.476.177 0 .355-.004.533-.014 57.934-3.043 111.158-12.719 149.867-27.246 42.983-16.131 65.703-37.191 65.703-60.904 0-27.707-31.105-51.698-87.964-68.265zm-55.439-119.779c-15.024 5.486-29.707 13.222-43.47 23.022-2.69-15.409-7.211-30.325-13.386-44.072 13.392-10.316 27.924-17.716 42.658-21.717 7.088 12.518 11.916 27.078 14.198 42.767zm-112.597-62.043c13.746 10.657 25.56 25.301 34.416 42.729 8.706 17.121 14.401 36.711 16.596 56.935-2.389 2.168-4.743 4.393-7.046 6.695-19.994 19.993-34.928 43.38-43.966 67.686-9.038-24.307-23.972-47.693-43.965-67.686-2.303-2.303-4.657-4.528-7.046-6.696 2.195-20.224 7.89-39.814 16.597-56.937 8.854-17.426 20.668-32.069 34.414-42.726zm-98.399 19.276c14.733 4 29.265 11.4 42.657 21.716-6.174 13.75-10.688 28.669-13.376 44.079-13.766-9.803-28.451-17.542-43.478-23.029 2.281-15.688 7.109-30.248 14.197-42.766zm-33.317 174.834c-34.721-34.722-52.424-80.406-47.256-120.865 40.458-5.168 86.145 12.536 120.865 47.257 30.278 30.278 47.609 68.892 48.123 105.11-.017 1.238-.026 2.475-.009 3.708-.072 4.055-.351 8.077-.859 12.047-40.456 5.165-86.143-12.536-120.864-47.257zm263.432 0c-34.722 34.721-80.405 52.425-120.865 47.256-.507-3.969-.786-7.989-.858-12.043.017-1.235.008-2.474-.009-3.714.515-36.217 17.846-74.831 48.124-105.108 34.72-34.721 80.403-52.428 120.864-47.256 5.168 40.459-12.535 86.144-47.256 120.865z"/></g></g></svg>